<?xml version="1.0" encoding="UTF-8"?>
<!DOCTYPE svg PUBLIC "-//W3C//DTD SVG 1.1//EN" "http://www.w3.org/Graphics/SVG/1.1/DTD/svg11.dtd">
<svg xmlns="http://www.w3.org/2000/svg" version="1.1" width="272px" height="280px" style="shape-rendering:geometricPrecision; text-rendering:geometricPrecision; image-rendering:optimizeQuality; fill-rule:evenodd; clip-rule:evenodd" xmlns:xlink="http://www.w3.org/1999/xlink">
<g><path style="opacity:0.016" fill="#0a0a0a" d="M 122.5,12.5 C 167.437,9.62986 204.604,24.9632 234,58.5C 248.632,77.3791 257.632,98.7125 261,122.5C 261.667,166.833 261.667,211.167 261,255.5C 260.002,259.493 257.835,262.659 254.5,265C 210.213,266.646 165.879,266.979 121.5,266C 71.6782,259.48 36.8448,233.313 17,187.5C -0.297566,137.269 8.03577,91.9356 42,51.5C 64.5035,29.4979 91.3369,16.4979 122.5,12.5 Z"/></g>
<g><path style="opacity:0.301" fill="#4f4f4f" d="M 173.5,23.5 C 172.167,23.5 170.833,23.5 169.5,23.5C 161.253,20.3131 152.586,18.6465 143.5,18.5C 132.373,16.8393 121.373,17.506 110.5,20.5C 109.167,20.5 107.833,20.5 106.5,20.5C 109.687,19.104 113.02,17.9373 116.5,17C 133.303,15.8207 149.97,16.8207 166.5,20C 169.187,20.7285 171.52,21.8951 173.5,23.5 Z"/></g>
<g><path style="opacity:0.808" fill="#9e9e9e" d="M 143.5,18.5 C 132.439,18.3277 121.439,18.9944 110.5,20.5C 121.373,17.506 132.373,16.8393 143.5,18.5 Z"/></g>
<g><path style="opacity:1" fill="#f8f8f9" d="M 143.5,18.5 C 152.586,18.6465 161.253,20.3131 169.5,23.5C 173.94,25.5376 178.607,27.2042 183.5,28.5C 192.412,32.6238 201.078,37.2905 209.5,42.5C 210.911,44.914 212.911,46.5806 215.5,47.5C 219.167,51.8333 223.167,55.8333 227.5,59.5C 232.203,66.193 236.87,72.8597 241.5,79.5C 241.75,81.674 242.75,83.3406 244.5,84.5C 246.994,90.1935 249.327,95.8602 251.5,101.5C 252.421,108.466 254.088,115.133 256.5,121.5C 256.667,165.168 256.5,208.835 256,252.5C 255.347,255.139 254.18,257.473 252.5,259.5C 251.508,259.328 250.842,259.662 250.5,260.5C 206.33,260.832 162.33,260.499 118.5,259.5C 113.338,258.269 108.004,257.269 102.5,256.5C 96.4727,253.599 90.1393,251.266 83.5,249.5C 81.9731,249.573 80.9731,248.906 80.5,247.5C 76.6667,245.323 72.6667,243.323 68.5,241.5C 62.9023,237.909 57.569,233.909 52.5,229.5C 47.4721,224.14 42.4721,218.807 37.5,213.5C 29.5655,201.631 23.2322,188.964 18.5,175.5C 16.3669,168.726 14.8669,161.726 14,154.5C 13.2538,142.807 13.4204,131.14 14.5,119.5C 16.1534,113.606 17.82,107.606 19.5,101.5C 19.5,100.833 19.5,100.167 19.5,99.5C 21.5918,96.9116 22.9251,93.9116 23.5,90.5C 25.6067,84.9533 28.2733,79.62 31.5,74.5C 34.3131,71.5541 36.6465,68.2208 38.5,64.5C 40.8333,61.8333 43.1667,59.1667 45.5,56.5C 49.2002,52.4648 53.2002,48.7981 57.5,45.5C 62.6974,41.0705 68.364,37.4038 74.5,34.5C 78.8637,31.5744 83.5304,29.2411 88.5,27.5C 95.5252,23.9349 102.859,21.6015 110.5,20.5C 121.439,18.9944 132.439,18.3277 143.5,18.5 Z"/></g>
<g><path style="opacity:0.541" fill="#858585" d="M 106.5,20.5 C 107.833,20.5 109.167,20.5 110.5,20.5C 102.859,21.6015 95.5252,23.9349 88.5,27.5C 89.5903,26.1429 90.9236,25.1429 92.5,24.5C 96.7335,22.0445 101.4,20.7112 106.5,20.5 Z"/></g>
<g><path style="opacity:0.565" fill="#adadad" d="M 169.5,23.5 C 170.833,23.5 172.167,23.5 173.5,23.5C 177.044,24.7895 180.377,26.4561 183.5,28.5C 178.607,27.2042 173.94,25.5376 169.5,23.5 Z"/></g>
<g><path style="opacity:1" fill="#8595e6" d="M 215.5,58.5 C 213.167,61.1667 210.833,63.8333 208.5,66.5C 194.019,52.8957 177.019,43.7291 157.5,39C 152.22,37.9054 146.887,37.4054 141.5,37.5C 128.634,35.7142 115.967,37.0476 103.5,41.5C 98.5102,42.9346 93.8435,44.9346 89.5,47.5C 89.1667,47.5 88.8333,47.5 88.5,47.5C 88.5299,46.5028 88.0299,45.8361 87,45.5C 83.3543,44.4529 79.8543,43.1196 76.5,41.5C 99.185,27.5002 123.852,22.3335 150.5,26C 175.767,29.967 197.434,40.8003 215.5,58.5 Z"/></g>
<g><path style="opacity:0.208" fill="#444444" d="M 92.5,24.5 C 90.9236,25.1429 89.5903,26.1429 88.5,27.5C 83.5304,29.2411 78.8637,31.5744 74.5,34.5C 70.7073,34.7312 67.3739,36.0645 64.5,38.5C 66.1139,35.231 68.7806,33.5643 72.5,33.5C 72.5608,30.9505 73.8941,29.4505 76.5,29C 81.6537,27.0063 86.987,25.5063 92.5,24.5 Z"/></g>
<g><path style="opacity:0.333" fill="#6b6b6b" d="M 173.5,23.5 C 179.741,24.6366 185.741,26.47 191.5,29C 196.497,32.8339 201.83,36.1672 207.5,39C 208.305,40.1127 208.972,41.2794 209.5,42.5C 201.078,37.2905 192.412,32.6238 183.5,28.5C 180.377,26.4561 177.044,24.7895 173.5,23.5 Z"/></g>
<g><path style="opacity:1" fill="#06020d" d="M 141.5,37.5 C 146.887,37.4054 152.22,37.9054 157.5,39C 177.019,43.7291 194.019,52.8957 208.5,66.5C 225.78,85.0676 235.446,107.068 237.5,132.5C 241.5,132.5 245.5,132.5 249.5,132.5C 249.5,133.833 249.5,135.167 249.5,136.5C 249.167,136.5 248.833,136.5 248.5,136.5C 236.833,136.5 225.167,136.5 213.5,136.5C 204.5,127.167 195.5,117.833 186.5,108.5C 191.383,97.733 196.55,87.0663 202,76.5C 202.765,74.9343 202.598,73.6009 201.5,72.5C 200.127,72.3433 198.793,72.51 197.5,73C 188.933,77.4506 180.267,81.6172 171.5,85.5C 155.34,70.1728 139.673,54.3394 124.5,38C 130.157,37.5006 135.824,37.3339 141.5,37.5 Z"/></g>
<g><path style="opacity:1" fill="#090116" d="M 141.5,37.5 C 135.824,37.3339 130.157,37.5006 124.5,38C 139.673,54.3394 155.34,70.1728 171.5,85.5C 169.481,86.9334 167.314,88.2668 165,89.5C 164.333,90.5 164.333,91.5 165,92.5C 168.59,94.5229 172.424,95.8562 176.5,96.5C 178.619,100.682 180.452,105.015 182,109.5C 183.711,110.581 185.211,110.248 186.5,108.5C 195.5,117.833 204.5,127.167 213.5,136.5C 206.5,136.5 199.5,136.5 192.5,136.5C 184.201,126.866 175.534,117.532 166.5,108.5C 170.441,104.48 169.441,103.48 163.5,105.5C 143.034,84.8664 122.701,64.0331 102.5,43C 103.056,42.6174 103.389,42.1174 103.5,41.5C 115.967,37.0476 128.634,35.7142 141.5,37.5 Z"/></g>
<g><path style="opacity:0.639" fill="#959595" d="M 74.5,34.5 C 68.364,37.4038 62.6974,41.0705 57.5,45.5C 59.5,42.8333 61.8333,40.5 64.5,38.5C 67.3739,36.0645 70.7073,34.7312 74.5,34.5 Z"/></g>
<g><path style="opacity:1" fill="#8c90ea" d="M 76.5,41.5 C 79.8543,43.1196 83.3543,44.4529 87,45.5C 88.0299,45.8361 88.5299,46.5028 88.5,47.5C 85.1667,49.5 81.8333,51.5 78.5,53.5C 75.2157,55.117 72.5491,57.4503 70.5,60.5C 68.6132,61.7679 67.6132,63.6013 67.5,66C 68.5012,70.4923 70.1678,74.659 72.5,78.5C 73.9131,81.6612 75.5797,84.6612 77.5,87.5C 65.2545,83.2096 52.9212,79.2096 40.5,75.5C 49.6176,61.0473 61.6176,49.7139 76.5,41.5 Z"/></g>
<g><path style="opacity:1" fill="#0c011d" d="M 103.5,41.5 C 103.389,42.1174 103.056,42.6174 102.5,43C 122.701,64.0331 143.034,84.8664 163.5,105.5C 159.677,108.916 155.343,111.582 150.5,113.5C 143.833,106.167 136.833,99.1667 129.5,92.5C 130.512,90.8998 130.012,89.5665 128,88.5C 127.667,87.1667 127.333,85.8333 127,84.5C 126.768,85.7375 126.268,86.7375 125.5,87.5C 119.349,81.2418 113.182,74.9085 107,68.5C 106.667,67.5 106.333,66.5 106,65.5C 99.9032,59.9094 94.4032,53.9094 89.5,47.5C 93.8435,44.9346 98.5102,42.9346 103.5,41.5 Z"/></g>
<g><path style="opacity:0.388" fill="#898989" d="M 209.5,42.5 C 212.089,43.4194 214.089,45.086 215.5,47.5C 212.911,46.5806 210.911,44.914 209.5,42.5 Z"/></g>
<g><path style="opacity:0.392" fill="#8c8c8c" d="M 215.5,47.5 C 220.5,50.5 224.5,54.5 227.5,59.5C 223.167,55.8333 219.167,51.8333 215.5,47.5 Z"/></g>
<g><path style="opacity:1" fill="#0f0123" d="M 88.5,47.5 C 88.8333,47.5 89.1667,47.5 89.5,47.5C 94.4032,53.9094 99.9032,59.9094 106,65.5C 106.333,66.5 106.667,67.5 107,68.5C 113.182,74.9085 119.349,81.2418 125.5,87.5C 125.489,89.0174 124.823,90.1841 123.5,91C 125.102,92.9347 126.269,95.1013 127,97.5C 127.374,95.5087 128.207,93.842 129.5,92.5C 136.833,99.1667 143.833,106.167 150.5,113.5C 148.054,116.231 145.054,118.231 141.5,119.5C 126.896,104.395 112.062,89.395 97,74.5C 90.6025,67.6088 84.4358,60.6088 78.5,53.5C 81.8333,51.5 85.1667,49.5 88.5,47.5 Z"/></g>
<g><path style="opacity:1" fill="#e5e5e6" d="M 156.5,48.5 C 157.574,50.2793 158.907,51.946 160.5,53.5C 158.52,55.7948 157.353,58.4615 157,61.5C 156.152,58.62 154.652,56.12 152.5,54C 154.439,52.5679 155.772,50.7346 156.5,48.5 Z"/></g>
<g><path style="opacity:0.69" fill="#8f8f8f" d="M 57.5,45.5 C 53.2002,48.7981 49.2002,52.4648 45.5,56.5C 46.8333,54.1667 48.1667,51.8333 49.5,49.5C 52.1667,48.1667 54.8333,46.8333 57.5,45.5 Z"/></g>
<g><path style="opacity:1" fill="#100129" d="M 78.5,53.5 C 84.4358,60.6088 90.6025,67.6088 97,74.5C 112.062,89.395 126.896,104.395 141.5,119.5C 139.206,121.653 136.54,123.32 133.5,124.5C 111.803,103.804 90.8035,82.4705 70.5,60.5C 72.5491,57.4503 75.2157,55.117 78.5,53.5 Z"/></g>
<g><path style="opacity:0.072" fill="#323232" d="M 49.5,49.5 C 48.1667,51.8333 46.8333,54.1667 45.5,56.5C 43.1667,59.1667 40.8333,61.8333 38.5,64.5C 34.7301,66.6664 32.3967,69.9997 31.5,74.5C 31.1667,74.5 30.8333,74.5 30.5,74.5C 30.7239,72.2133 31.3906,70.0466 32.5,68C 35.0384,64.472 37.5384,60.972 40,57.5C 42.9686,54.516 46.1353,51.8494 49.5,49.5 Z"/></g>
<g><path style="opacity:1" fill="#707fc2" d="M 215.5,58.5 C 235.972,78.7892 247.306,103.456 249.5,132.5C 245.5,132.5 241.5,132.5 237.5,132.5C 235.446,107.068 225.78,85.0676 208.5,66.5C 210.833,63.8333 213.167,61.1667 215.5,58.5 Z"/></g>
<g><path style="opacity:1" fill="#d6d4d8" d="M 113.5,61.5 C 116.937,63.6743 117.103,66.0076 114,68.5C 112.417,66.3013 112.25,63.968 113.5,61.5 Z"/></g>
<g><path style="opacity:0.2" fill="#5c5c5c" d="M 227.5,59.5 C 229.583,60.0289 231.417,61.0289 233,62.5C 235.505,67.1305 238.338,71.4638 241.5,75.5C 241.5,76.8333 241.5,78.1667 241.5,79.5C 236.87,72.8597 232.203,66.193 227.5,59.5 Z"/></g>
<g><path style="opacity:1" fill="#d1d0d1" d="M 189.5,63.5 C 190.598,64.6009 190.765,65.9343 190,67.5C 188.232,66.3181 188.065,64.9848 189.5,63.5 Z"/></g>
<g><path style="opacity:1" fill="#13002f" d="M 70.5,60.5 C 90.8035,82.4705 111.803,103.804 133.5,124.5C 131.178,126.664 128.511,128.331 125.5,129.5C 124.761,129.631 124.094,129.464 123.5,129C 107.413,112.225 91.0799,95.5587 74.5,79C 73.9056,78.5357 73.2389,78.369 72.5,78.5C 70.1678,74.659 68.5012,70.4923 67.5,66C 67.6132,63.6013 68.6132,61.7679 70.5,60.5 Z"/></g>
<g><path style="opacity:1" fill="#dad8de" d="M 81.5,65.5 C 83.8586,66.3887 84.0253,67.722 82,69.5C 80.6658,68.1221 80.4991,66.7887 81.5,65.5 Z"/></g>
<g><path style="opacity:0.537" fill="#828282" d="M 38.5,64.5 C 36.6465,68.2208 34.3131,71.5541 31.5,74.5C 32.3967,69.9997 34.7301,66.6664 38.5,64.5 Z"/></g>
<g><path style="opacity:1" fill="#4a7aac" d="M 201.5,72.5 C 202.598,73.6009 202.765,74.9343 202,76.5C 196.55,87.0663 191.383,97.733 186.5,108.5C 185.211,110.248 183.711,110.581 182,109.5C 180.452,105.015 178.619,100.682 176.5,96.5C 185.446,89.2224 193.779,81.2224 201.5,72.5 Z"/></g>
<g><path style="opacity:1" fill="#150236" d="M 72.5,78.5 C 73.2389,78.369 73.9056,78.5357 74.5,79C 91.0799,95.5587 107.413,112.225 123.5,129C 124.094,129.464 124.761,129.631 125.5,129.5C 122.709,131.735 119.709,133.735 116.5,135.5C 111.337,131.17 106.67,126.336 102.5,121C 101.906,120.536 101.239,120.369 100.5,120.5C 101.141,119.518 101.807,118.518 102.5,117.5C 101.316,115.954 100.316,114.287 99.5,112.5C 98.8503,114.184 97.8503,115.517 96.5,116.5C 93.6042,112.095 90.1042,108.095 86,104.5C 85.8019,102.618 85.3019,100.952 84.5,99.5C 82.668,95.1638 80.3346,91.1638 77.5,87.5C 75.5797,84.6612 73.9131,81.6612 72.5,78.5 Z"/></g>
<g><path style="opacity:1" fill="#928eee" d="M 40.5,75.5 C 52.9212,79.2096 65.2545,83.2096 77.5,87.5C 80.3346,91.1638 82.668,95.1638 84.5,99.5C 84.6633,101.857 84.4966,104.19 84,106.5C 82.389,111.165 80.889,115.832 79.5,120.5C 77.2694,123.836 75.6027,127.503 74.5,131.5C 73.8333,131.5 73.5,131.833 73.5,132.5C 56.9026,126.301 40.236,120.301 23.5,114.5C 26.6677,100.303 32.3344,87.3026 40.5,75.5 Z"/></g>
<g><path style="opacity:0.069" fill="#353535" d="M 241.5,75.5 C 242.376,75.3691 243.043,75.7025 243.5,76.5C 247.529,83.5027 250.529,90.5027 252.5,97.5C 252.5,98.8333 252.5,100.167 252.5,101.5C 252.167,101.5 251.833,101.5 251.5,101.5C 249.327,95.8602 246.994,90.1935 244.5,84.5C 244.408,82.1523 243.408,80.4856 241.5,79.5C 241.5,78.1667 241.5,76.8333 241.5,75.5 Z"/></g>
<g><path style="opacity:0.376" fill="#717171" d="M 30.5,74.5 C 30.8333,74.5 31.1667,74.5 31.5,74.5C 28.2733,79.62 25.6067,84.9533 23.5,90.5C 23.5,89.1667 23.5,87.8333 23.5,86.5C 25.2967,82.2473 27.6301,78.2473 30.5,74.5 Z"/></g>
<g><path style="opacity:1" fill="#5891cd" d="M 201.5,72.5 C 193.779,81.2224 185.446,89.2224 176.5,96.5C 172.424,95.8562 168.59,94.5229 165,92.5C 164.333,91.5 164.333,90.5 165,89.5C 167.314,88.2668 169.481,86.9334 171.5,85.5C 180.267,81.6172 188.933,77.4506 197.5,73C 198.793,72.51 200.127,72.3433 201.5,72.5 Z"/></g>
<g><path style="opacity:0.537" fill="#818181" d="M 241.5,79.5 C 243.408,80.4856 244.408,82.1523 244.5,84.5C 242.75,83.3406 241.75,81.674 241.5,79.5 Z"/></g>
<g><path style="opacity:1" fill="#e9e8eb" d="M 129.5,92.5 C 128.207,93.842 127.374,95.5087 127,97.5C 126.269,95.1013 125.102,92.9347 123.5,91C 124.823,90.1841 125.489,89.0174 125.5,87.5C 126.268,86.7375 126.768,85.7375 127,84.5C 127.333,85.8333 127.667,87.1667 128,88.5C 130.012,89.5665 130.512,90.8998 129.5,92.5 Z"/></g>
<g><path style="opacity:0.737" fill="#979797" d="M 23.5,90.5 C 22.9251,93.9116 21.5918,96.9116 19.5,99.5C 19.5018,95.8355 20.8352,92.8355 23.5,90.5 Z"/></g>
<g><path style="opacity:1" fill="#19023f" d="M 84.5,99.5 C 85.3019,100.952 85.8019,102.618 86,104.5C 90.1042,108.095 93.6042,112.095 96.5,116.5C 96.7031,118.044 97.3698,119.378 98.5,120.5C 99.2565,121.773 99.9232,121.773 100.5,120.5C 101.239,120.369 101.906,120.536 102.5,121C 106.67,126.336 111.337,131.17 116.5,135.5C 112.342,138.414 108.009,141.081 103.5,143.5C 102.761,143.631 102.094,143.464 101.5,143C 94.6619,134.995 87.3285,127.495 79.5,120.5C 80.889,115.832 82.389,111.165 84,106.5C 84.4966,104.19 84.6633,101.857 84.5,99.5 Z"/></g>
<g><path style="opacity:0.369" fill="#797979" d="M 251.5,101.5 C 251.833,101.5 252.167,101.5 252.5,101.5C 254.656,107.88 255.99,114.547 256.5,121.5C 254.088,115.133 252.421,108.466 251.5,101.5 Z"/></g>
<g><path style="opacity:0.369" fill="#787878" d="M 19.5,101.5 C 17.82,107.606 16.1534,113.606 14.5,119.5C 14.3881,114.562 15.0547,109.729 16.5,105C 16.7151,103.092 17.7151,101.926 19.5,101.5 Z"/></g>
<g><path style="opacity:1" fill="#0d011d" d="M 166.5,108.5 C 175.534,117.532 184.201,126.866 192.5,136.5C 189.5,136.5 186.5,136.5 183.5,136.5C 183.5,145.167 183.5,153.833 183.5,162.5C 182.167,161.5 180.833,160.5 179.5,159.5C 179.962,157.243 180.962,155.243 182.5,153.5C 180.297,151.705 179.131,149.371 179,146.5C 178.517,147.448 178.351,148.448 178.5,149.5C 177.515,145.366 177.182,141.032 177.5,136.5C 175.833,136.5 174.167,136.5 172.5,136.5C 171.089,134.086 169.089,132.419 166.5,131.5C 169.233,129.03 169.066,126.696 166,124.5C 165.209,125.745 164.709,127.078 164.5,128.5C 162.567,126.063 160.4,123.729 158,121.5C 157.51,120.207 157.343,118.873 157.5,117.5C 160.167,114.167 163.167,111.167 166.5,108.5 Z"/></g>
<g><path style="opacity:1" fill="#dcdbdd" d="M 208.5,108.5 C 208.987,111.493 210.321,114.16 212.5,116.5C 210.703,118.131 209.536,120.131 209,122.5C 207.743,120.321 206.243,118.321 204.5,116.5C 206.784,114.317 208.118,111.65 208.5,108.5 Z"/></g>
<g><path style="opacity:1" fill="#988af1" d="M 23.5,114.5 C 40.236,120.301 56.9026,126.301 73.5,132.5C 70.9475,137.609 68.9475,142.942 67.5,148.5C 68.5824,156.878 73.2491,160.045 81.5,158C 85.3772,156.568 88.7105,154.402 91.5,151.5C 95.4828,149.194 99.4828,146.861 103.5,144.5C 110.264,145.864 116.598,148.197 122.5,151.5C 122.167,152.167 121.833,152.833 121.5,153.5C 112.833,161.5 104.5,169.833 96.5,178.5C 95.8333,178.833 95.1667,179.167 94.5,179.5C 70.2486,170.305 45.9153,161.305 21.5,152.5C 19.9189,139.701 20.5856,127.034 23.5,114.5 Z"/></g>
<g><path style="opacity:1" fill="#dcd9e1" d="M 100.5,120.5 C 99.9232,121.773 99.2565,121.773 98.5,120.5C 97.3698,119.378 96.7031,118.044 96.5,116.5C 97.8503,115.517 98.8503,114.184 99.5,112.5C 100.316,114.287 101.316,115.954 102.5,117.5C 101.807,118.518 101.141,119.518 100.5,120.5 Z"/></g>
<g><path style="opacity:1" fill="#8f8beb" d="M 166.5,108.5 C 163.167,111.167 160.167,114.167 157.5,117.5C 151.833,122.5 146.5,127.833 141.5,133.5C 135.167,139.5 128.833,145.5 122.5,151.5C 116.598,148.197 110.264,145.864 103.5,144.5C 103.5,144.167 103.5,143.833 103.5,143.5C 108.009,141.081 112.342,138.414 116.5,135.5C 119.709,133.735 122.709,131.735 125.5,129.5C 128.511,128.331 131.178,126.664 133.5,124.5C 136.54,123.32 139.206,121.653 141.5,119.5C 145.054,118.231 148.054,116.231 150.5,113.5C 155.343,111.582 159.677,108.916 163.5,105.5C 169.441,103.48 170.441,104.48 166.5,108.5 Z"/></g>
<g><path style="opacity:1" fill="#100225" d="M 157.5,117.5 C 157.343,118.873 157.51,120.207 158,121.5C 160.4,123.729 162.567,126.063 164.5,128.5C 164.932,129.71 165.599,130.71 166.5,131.5C 169.089,132.419 171.089,134.086 172.5,136.5C 162.833,136.5 153.167,136.5 143.5,136.5C 142.833,135.5 142.167,134.5 141.5,133.5C 146.5,127.833 151.833,122.5 157.5,117.5 Z"/></g>
<g><path style="opacity:1" fill="#1d014a" d="M 79.5,120.5 C 87.3285,127.495 94.6619,134.995 101.5,143C 102.094,143.464 102.761,143.631 103.5,143.5C 103.5,143.833 103.5,144.167 103.5,144.5C 99.4828,146.861 95.4828,149.194 91.5,151.5C 86.2304,145.729 80.7304,140.062 75,134.5C 74.5172,133.552 74.3505,132.552 74.5,131.5C 75.6027,127.503 77.2694,123.836 79.5,120.5 Z"/></g>
<g><path style="opacity:1" fill="#d2d0d6" d="M 166.5,131.5 C 165.599,130.71 164.932,129.71 164.5,128.5C 164.709,127.078 165.209,125.745 166,124.5C 169.066,126.696 169.233,129.03 166.5,131.5 Z"/></g>
<g><path style="opacity:0.09" fill="#222222" d="M 252.5,97.5 C 255.73,105.416 257.897,113.75 259,122.5C 259.667,166.5 259.667,210.5 259,254.5C 257.949,258.214 255.782,261.047 252.5,263C 209.331,263.831 166.331,263.665 123.5,262.5C 165.168,262.667 206.835,262.5 248.5,262C 249.416,261.722 250.082,261.222 250.5,260.5C 250.842,259.662 251.508,259.328 252.5,259.5C 255.168,258.543 256.668,256.543 257,253.5C 257.831,209.331 257.665,165.331 256.5,121.5C 255.99,114.547 254.656,107.88 252.5,101.5C 252.5,100.167 252.5,98.8333 252.5,97.5 Z"/></g>
<g><path style="opacity:0.49" fill="#797979" d="M 256.5,121.5 C 257.665,165.331 257.831,209.331 257,253.5C 256.668,256.543 255.168,258.543 252.5,259.5C 254.18,257.473 255.347,255.139 256,252.5C 256.5,208.835 256.667,165.168 256.5,121.5 Z"/></g>
<g><path style="opacity:1" fill="#230157" d="M 74.5,131.5 C 74.3505,132.552 74.5172,133.552 75,134.5C 80.7304,140.062 86.2304,145.729 91.5,151.5C 88.7105,154.402 85.3772,156.568 81.5,158C 73.2491,160.045 68.5824,156.878 67.5,148.5C 68.9475,142.942 70.9475,137.609 73.5,132.5C 73.5,131.833 73.8333,131.5 74.5,131.5 Z"/></g>
<g><path style="opacity:1" fill="#6484bd" d="M 143.5,137.5 C 147.884,137.174 152.217,137.508 156.5,138.5C 147.876,160.077 139.543,181.744 131.5,203.5C 128.428,203.817 125.428,203.484 122.5,202.5C 118.83,191.828 115.163,181.162 111.5,170.5C 115.452,165.212 119.785,160.212 124.5,155.5C 125.15,155.196 125.817,154.863 126.5,154.5C 127.762,157.115 128.928,159.782 130,162.5C 132.333,156.167 134.667,149.833 137,143.5C 139.037,141.294 141.203,139.294 143.5,137.5 Z"/></g>
<g><path style="opacity:1" fill="#6b7fc0" d="M 143.5,137.5 C 143.5,137.167 143.5,136.833 143.5,136.5C 153.167,136.5 162.833,136.5 172.5,136.5C 174.167,136.5 175.833,136.5 177.5,136.5C 177.182,141.032 177.515,145.366 178.5,149.5C 178.167,150.167 177.833,150.833 177.5,151.5C 176.691,149.708 176.191,147.708 176,145.5C 168.394,164.823 160.894,184.156 153.5,203.5C 151.833,203.5 150.167,203.5 148.5,203.5C 148.5,195.833 148.5,188.167 148.5,180.5C 149.931,181.903 151.098,183.569 152,185.5C 152.346,183.152 153.513,181.319 155.5,180C 153.459,178.758 152.293,176.925 152,174.5C 151.098,176.431 149.931,178.097 148.5,179.5C 148.665,176.15 148.498,172.817 148,169.5C 143.988,180.036 140.488,190.702 137.5,201.5C 135.886,203.075 133.886,203.741 131.5,203.5C 139.543,181.744 147.876,160.077 156.5,138.5C 152.217,137.508 147.884,137.174 143.5,137.5 Z"/></g>
<g><path style="opacity:1" fill="#7879c7" d="M 192.5,136.5 C 199.5,136.5 206.5,136.5 213.5,136.5C 225.167,136.5 236.833,136.5 248.5,136.5C 237.007,137.331 225.341,137.831 213.5,138C 211.98,141.193 210.646,144.36 209.5,147.5C 209.154,145.295 208.487,145.128 207.5,147C 207.639,148.301 208.305,149.134 209.5,149.5C 203.962,162.123 198.629,174.789 193.5,187.5C 192.999,181.502 191.665,181.169 189.5,186.5C 190.521,187.901 191.521,189.235 192.5,190.5C 191.601,193.028 190.601,195.528 189.5,198C 192.07,200.087 194.737,201.92 197.5,203.5C 192.833,203.5 188.167,203.5 183.5,203.5C 183.5,199.167 183.5,194.833 183.5,190.5C 183.5,181.167 183.5,171.833 183.5,162.5C 183.5,153.833 183.5,145.167 183.5,136.5C 186.5,136.5 189.5,136.5 192.5,136.5 Z"/></g>
<g><path style="opacity:1" fill="#7f75ca" d="M 248.5,136.5 C 248.833,136.5 249.167,136.5 249.5,136.5C 249.5,143.5 249.5,150.5 249.5,157.5C 237.167,157.5 224.833,157.5 212.5,157.5C 212.077,159.781 212.744,161.448 214.5,162.5C 208.892,176.051 203.559,189.717 198.5,203.5C 198.167,203.5 197.833,203.5 197.5,203.5C 194.737,201.92 192.07,200.087 189.5,198C 190.601,195.528 191.601,193.028 192.5,190.5C 192.263,189.209 192.596,188.209 193.5,187.5C 198.629,174.789 203.962,162.123 209.5,149.5C 209.5,148.833 209.5,148.167 209.5,147.5C 210.646,144.36 211.98,141.193 213.5,138C 225.341,137.831 237.007,137.331 248.5,136.5 Z"/></g>
<g><path style="opacity:1" fill="#17063b" d="M 141.5,133.5 C 142.167,134.5 142.833,135.5 143.5,136.5C 143.5,136.833 143.5,137.167 143.5,137.5C 141.203,139.294 139.037,141.294 137,143.5C 134.667,149.833 132.333,156.167 130,162.5C 128.928,159.782 127.762,157.115 126.5,154.5C 125.817,154.863 125.15,155.196 124.5,155.5C 123.5,154.833 122.5,154.167 121.5,153.5C 121.833,152.833 122.167,152.167 122.5,151.5C 128.833,145.5 135.167,139.5 141.5,133.5 Z"/></g>
<g><path style="opacity:1" fill="#737ec5" d="M 177.5,151.5 C 176.909,152.151 176.243,152.818 175.5,153.5C 176.193,154.518 176.859,155.518 177.5,156.5C 176.504,171.991 176.17,187.658 176.5,203.5C 168.833,203.5 161.167,203.5 153.5,203.5C 160.894,184.156 168.394,164.823 176,145.5C 176.191,147.708 176.691,149.708 177.5,151.5 Z"/></g>
<g><path style="opacity:1" fill="#e4e3f4" d="M 209.5,147.5 C 209.5,148.167 209.5,148.833 209.5,149.5C 208.305,149.134 207.639,148.301 207.5,147C 208.487,145.128 209.154,145.295 209.5,147.5 Z"/></g>
<g><path style="opacity:1" fill="#e1dfe4" d="M 179.5,159.5 C 179.167,160.833 178.833,160.833 178.5,159.5C 178.443,158.391 178.11,157.391 177.5,156.5C 176.859,155.518 176.193,154.518 175.5,153.5C 176.243,152.818 176.909,152.151 177.5,151.5C 177.833,150.833 178.167,150.167 178.5,149.5C 178.351,148.448 178.517,147.448 179,146.5C 179.131,149.371 180.297,151.705 182.5,153.5C 180.962,155.243 179.962,157.243 179.5,159.5 Z"/></g>
<g><path style="opacity:1" fill="#0f051b" d="M 249.5,157.5 C 249.5,159.167 249.5,160.833 249.5,162.5C 237.833,162.5 226.167,162.5 214.5,162.5C 212.744,161.448 212.077,159.781 212.5,157.5C 224.833,157.5 237.167,157.5 249.5,157.5 Z"/></g>
<g><path style="opacity:0.061" fill="#383838" d="M 23.5,86.5 C 23.5,87.8333 23.5,89.1667 23.5,90.5C 20.8352,92.8355 19.5018,95.8355 19.5,99.5C 19.5,100.167 19.5,100.833 19.5,101.5C 17.7151,101.926 16.7151,103.092 16.5,105C 15.0547,109.729 14.3881,114.562 14.5,119.5C 13.4204,131.14 13.2538,142.807 14,154.5C 14.8669,161.726 16.3669,168.726 18.5,175.5C 18.5079,178.545 18.8413,181.545 19.5,184.5C 17.3445,181.563 15.8445,178.229 15,174.5C 14.2947,170.092 13.2947,165.759 12,161.5C 11.3333,146.833 11.3333,132.167 12,117.5C 13.6664,108.171 16.333,99.1709 20,90.5C 20.66,88.6763 21.8267,87.343 23.5,86.5 Z"/></g>
<g><path style="opacity:1" fill="#8574ce" d="M 214.5,162.5 C 226.167,162.5 237.833,162.5 249.5,162.5C 249.5,167.5 249.5,172.5 249.5,177.5C 245.167,177.5 240.833,177.5 236.5,177.5C 238.86,175.202 238.36,173.202 235,171.5C 234.333,166.167 233.667,166.167 233,171.5C 229.64,173.202 229.14,175.202 231.5,177.5C 225.167,177.5 218.833,177.5 212.5,177.5C 212.5,179.167 212.5,180.833 212.5,182.5C 218.645,183.49 224.978,183.823 231.5,183.5C 229.167,190.167 226.833,196.833 224.5,203.5C 215.833,203.5 207.167,203.5 198.5,203.5C 203.559,189.717 208.892,176.051 214.5,162.5 Z"/></g>
<g><path style="opacity:1" fill="#9e88f4" d="M 21.5,152.5 C 45.9153,161.305 70.2486,170.305 94.5,179.5C 88.1667,186.167 81.8333,192.833 75.5,199.5C 70.8333,203.5 66.5,207.833 62.5,212.5C 59.5,214.833 56.8333,217.5 54.5,220.5C 35.5212,201.872 24.5212,179.205 21.5,152.5 Z"/></g>
<g><path style="opacity:1" fill="#efecf7" d="M 236.5,177.5 C 235.326,178.514 234.66,179.847 234.5,181.5C 234.167,181.5 233.833,181.5 233.5,181.5C 233.771,179.62 233.104,178.287 231.5,177.5C 229.14,175.202 229.64,173.202 233,171.5C 233.667,166.167 234.333,166.167 235,171.5C 238.36,173.202 238.86,175.202 236.5,177.5 Z"/></g>
<g><path style="opacity:1" fill="#5b87b8" d="M 109.5,203.5 C 100.167,203.5 90.8333,203.5 81.5,203.5C 81.3398,201.801 81.5065,200.134 82,198.5C 87.7029,192.965 93.2029,187.298 98.5,181.5C 102.131,178.371 105.631,175.037 109,171.5C 109.5,182.161 109.667,192.828 109.5,203.5 Z"/></g>
<g><path style="opacity:1" fill="#e2e5f1" d="M 148.5,180.5 C 147.167,180.167 147.167,179.833 148.5,179.5C 149.931,178.097 151.098,176.431 152,174.5C 152.293,176.925 153.459,178.758 155.5,180C 153.513,181.319 152.346,183.152 152,185.5C 151.098,183.569 149.931,181.903 148.5,180.5 Z"/></g>
<g><path style="opacity:1" fill="#423b77" d="M 177.5,156.5 C 178.11,157.391 178.443,158.391 178.5,159.5C 177.507,167.65 177.174,175.983 177.5,184.5C 177.823,191.022 177.49,197.355 176.5,203.5C 176.17,187.658 176.504,171.991 177.5,156.5 Z"/></g>
<g><path style="opacity:1" fill="#12002d" d="M 178.5,159.5 C 178.833,160.833 179.167,160.833 179.5,159.5C 180.833,160.5 182.167,161.5 183.5,162.5C 183.5,171.833 183.5,181.167 183.5,190.5C 181.139,188.806 179.139,186.806 177.5,184.5C 177.174,175.983 177.507,167.65 178.5,159.5 Z"/></g>
<g><path style="opacity:1" fill="#100621" d="M 231.5,177.5 C 233.104,178.287 233.771,179.62 233.5,181.5C 226.687,182.491 219.687,182.825 212.5,182.5C 212.5,180.833 212.5,179.167 212.5,177.5C 218.833,177.5 225.167,177.5 231.5,177.5 Z"/></g>
<g><path style="opacity:1" fill="#12081e" d="M 236.5,177.5 C 240.833,177.5 245.167,177.5 249.5,177.5C 249.5,179.167 249.5,180.833 249.5,182.5C 244.305,182.821 239.305,182.487 234.5,181.5C 234.66,179.847 235.326,178.514 236.5,177.5 Z"/></g>
<g><path style="opacity:1" fill="#46356d" d="M 233.5,181.5 C 233.833,181.5 234.167,181.5 234.5,181.5C 239.305,182.487 244.305,182.821 249.5,182.5C 249.5,182.833 249.5,183.167 249.5,183.5C 243.5,183.5 237.5,183.5 231.5,183.5C 224.978,183.823 218.645,183.49 212.5,182.5C 219.687,182.825 226.687,182.491 233.5,181.5 Z"/></g>
<g><path style="opacity:1" fill="#8e70d2" d="M 231.5,183.5 C 237.5,183.5 243.5,183.5 249.5,183.5C 249.5,190.167 249.5,196.833 249.5,203.5C 244.5,203.5 239.5,203.5 234.5,203.5C 234.167,203.5 233.833,203.5 233.5,203.5C 230.5,203.5 227.5,203.5 224.5,203.5C 226.833,196.833 229.167,190.167 231.5,183.5 Z"/></g>
<g><path style="opacity:1" fill="#e7e6f5" d="M 193.5,187.5 C 192.596,188.209 192.263,189.209 192.5,190.5C 191.521,189.235 190.521,187.901 189.5,186.5C 191.665,181.169 192.999,181.502 193.5,187.5 Z"/></g>
<g><path style="opacity:1" fill="#29085f" d="M 121.5,153.5 C 122.5,154.167 123.5,154.833 124.5,155.5C 119.785,160.212 115.452,165.212 111.5,170.5C 115.163,181.162 118.83,191.828 122.5,202.5C 125.428,203.484 128.428,203.817 131.5,203.5C 133.886,203.741 135.886,203.075 137.5,201.5C 139.294,203.797 141.294,205.963 143.5,208C 140.964,208.186 138.631,208.686 136.5,209.5C 135.392,215.147 134.392,220.814 133.5,226.5C 133.567,227.959 133.234,229.292 132.5,230.5C 129.992,224.106 127.992,217.44 126.5,210.5C 121.88,209.507 117.214,209.173 112.5,209.5C 113.263,208.732 114.263,208.232 115.5,208C 114.12,206.075 112.62,204.241 111,202.5C 110.617,203.056 110.117,203.389 109.5,203.5C 109.667,192.828 109.5,182.161 109,171.5C 105.631,175.037 102.131,178.371 98.5,181.5C 97.8333,180.5 97.1667,179.5 96.5,178.5C 104.5,169.833 112.833,161.5 121.5,153.5 Z"/></g>
<g><path style="opacity:1" fill="#21054f" d="M 148.5,179.5 C 147.167,179.833 147.167,180.167 148.5,180.5C 148.5,188.167 148.5,195.833 148.5,203.5C 150.167,203.5 151.833,203.5 153.5,203.5C 161.167,203.5 168.833,203.5 176.5,203.5C 171.684,204.326 166.684,204.826 161.5,205C 162.5,206 163.5,207 164.5,208C 162.292,208.191 160.292,208.691 158.5,209.5C 158.5,212.833 158.5,216.167 158.5,219.5C 157.732,220.263 157.232,221.263 157,222.5C 156.329,221.748 155.496,221.414 154.5,221.5C 155.112,217.55 156.112,213.717 157.5,210C 150.508,209.5 143.508,209.334 136.5,209.5C 138.631,208.686 140.964,208.186 143.5,208C 141.294,205.963 139.294,203.797 137.5,201.5C 140.488,190.702 143.988,180.036 148,169.5C 148.498,172.817 148.665,176.15 148.5,179.5 Z"/></g>
<g><path style="opacity:1" fill="#ece9f1" d="M 114.5,193.5 C 117.69,194.667 118.023,196.334 115.5,198.5C 113.374,197.091 113.04,195.424 114.5,193.5 Z"/></g>
<g><path style="opacity:1" fill="#1a073e" d="M 177.5,184.5 C 179.139,186.806 181.139,188.806 183.5,190.5C 183.5,194.833 183.5,199.167 183.5,203.5C 188.167,203.5 192.833,203.5 197.5,203.5C 197.833,203.5 198.167,203.5 198.5,203.5C 207.167,203.5 215.833,203.5 224.5,203.5C 227.5,203.5 230.5,203.5 233.5,203.5C 233.5,204.167 233.167,204.5 232.5,204.5C 223.143,204.168 213.81,204.502 204.5,205.5C 205.127,206.417 205.461,207.417 205.5,208.5C 203.973,208.427 202.973,209.094 202.5,210.5C 187.912,209.517 173.245,209.184 158.5,209.5C 160.292,208.691 162.292,208.191 164.5,208C 163.5,207 162.5,206 161.5,205C 166.684,204.826 171.684,204.326 176.5,203.5C 177.49,197.355 177.823,191.022 177.5,184.5 Z"/></g>
<g><path style="opacity:0.275" fill="#6c6c6c" d="M 18.5,175.5 C 23.2322,188.964 29.5655,201.631 37.5,213.5C 34.8878,212.723 33.0545,211.056 32,208.5C 27.4987,200.491 23.332,192.491 19.5,184.5C 18.8413,181.545 18.5079,178.545 18.5,175.5 Z"/></g>
<g><path style="opacity:1" fill="#2d0370" d="M 96.5,178.5 C 97.1667,179.5 97.8333,180.5 98.5,181.5C 93.2029,187.298 87.7029,192.965 82,198.5C 81.5065,200.134 81.3398,201.801 81.5,203.5C 90.8333,203.5 100.167,203.5 109.5,203.5C 110.117,203.389 110.617,203.056 111,202.5C 112.62,204.241 114.12,206.075 115.5,208C 114.263,208.232 113.263,208.732 112.5,209.5C 111.146,216.25 109.479,222.917 107.5,229.5C 105.351,223.99 103.684,217.657 102.5,210.5C 99.1667,210.167 95.8333,209.833 92.5,209.5C 88.7614,209.514 85.428,210.18 82.5,211.5C 81.4289,207.896 79.2623,204.896 76,202.5C 75.5172,201.552 75.3505,200.552 75.5,199.5C 81.8333,192.833 88.1667,186.167 94.5,179.5C 95.1667,179.167 95.8333,178.833 96.5,178.5 Z"/></g>
<g><path style="opacity:1" fill="#14062d" d="M 234.5,203.5 C 239.5,203.5 244.5,203.5 249.5,203.5C 249.5,205.5 249.5,207.5 249.5,209.5C 242.5,209.5 235.5,209.5 228.5,209.5C 220.833,209.5 213.167,209.5 205.5,209.5C 205.5,209.167 205.5,208.833 205.5,208.5C 205.461,207.417 205.127,206.417 204.5,205.5C 213.81,204.502 223.143,204.168 232.5,204.5C 232.427,206.027 233.094,207.027 234.5,207.5C 238.97,208.486 243.637,208.819 248.5,208.5C 248.5,207.167 248.5,205.833 248.5,204.5C 244.167,204.5 239.833,204.5 235.5,204.5C 234.833,204.5 234.5,204.167 234.5,203.5 Z"/></g>
<g><path style="opacity:1" fill="#c1bdc7" d="M 233.5,203.5 C 233.833,203.5 234.167,203.5 234.5,203.5C 234.5,204.167 234.833,204.5 235.5,204.5C 235.443,205.609 235.11,206.609 234.5,207.5C 233.094,207.027 232.427,206.027 232.5,204.5C 233.167,204.5 233.5,204.167 233.5,203.5 Z"/></g>
<g><path style="opacity:1" fill="#0c001f" d="M 235.5,204.5 C 239.833,204.5 244.167,204.5 248.5,204.5C 248.5,205.833 248.5,207.167 248.5,208.5C 243.637,208.819 238.97,208.486 234.5,207.5C 235.11,206.609 235.443,205.609 235.5,204.5 Z"/></g>
<g><path style="opacity:1" fill="#eeecf2" d="M 205.5,208.5 C 205.5,208.833 205.5,209.167 205.5,209.5C 206.058,210.79 207.058,211.623 208.5,212C 206.7,213.812 205.033,215.645 203.5,217.5C 203.34,215.847 202.674,214.514 201.5,213.5C 201.389,212.883 201.056,212.383 200.5,212C 201.416,211.722 202.082,211.222 202.5,210.5C 202.973,209.094 203.973,208.427 205.5,208.5 Z"/></g>
<g><path style="opacity:1" fill="#37018a" d="M 75.5,199.5 C 75.3505,200.552 75.5172,201.552 76,202.5C 79.2623,204.896 81.4289,207.896 82.5,211.5C 84.5797,220.899 86.913,230.232 89.5,239.5C 80.1667,230.833 71.1667,221.833 62.5,212.5C 66.5,207.833 70.8333,203.5 75.5,199.5 Z"/></g>
<g><path style="opacity:1" fill="#5c8aba" d="M 107.5,229.5 C 111.566,232.563 114.899,236.229 117.5,240.5C 116.624,244.462 115.958,248.462 115.5,252.5C 106.718,251.016 98.3844,248.35 90.5,244.5C 90.3713,242.784 90.038,241.117 89.5,239.5C 86.913,230.232 84.5797,220.899 82.5,211.5C 85.428,210.18 88.7614,209.514 92.5,209.5C 95.8333,209.833 99.1667,210.167 102.5,210.5C 103.684,217.657 105.351,223.99 107.5,229.5 Z"/></g>
<g><path style="opacity:1" fill="#6186bc" d="M 112.5,209.5 C 117.214,209.173 121.88,209.507 126.5,210.5C 127.992,217.44 129.992,224.106 132.5,230.5C 132.047,231.458 131.381,232.292 130.5,233C 132.317,234.8 133.484,236.966 134,239.5C 134.516,236.966 135.683,234.8 137.5,233C 135.752,230.987 134.418,228.82 133.5,226.5C 134.392,220.814 135.392,215.147 136.5,209.5C 143.508,209.334 150.508,209.5 157.5,210C 156.112,213.717 155.112,217.55 154.5,221.5C 151.525,232.067 148.858,242.733 146.5,253.5C 136.985,253.827 127.652,253.494 118.5,252.5C 120.167,252.5 121.833,252.5 123.5,252.5C 123.13,246.683 121.963,241.016 120,235.5C 119.015,237.175 118.181,238.842 117.5,240.5C 114.899,236.229 111.566,232.563 107.5,229.5C 109.479,222.917 111.146,216.25 112.5,209.5 Z"/></g>
<g><path style="opacity:1" fill="#7d78ca" d="M 158.5,209.5 C 173.245,209.184 187.912,209.517 202.5,210.5C 202.082,211.222 201.416,211.722 200.5,212C 201.056,212.383 201.389,212.883 201.5,213.5C 201.5,216.5 201.5,219.5 201.5,222.5C 193.5,222.5 185.5,222.5 177.5,222.5C 177.5,223.833 177.5,225.167 177.5,226.5C 185.167,226.5 192.833,226.5 200.5,226.5C 200.5,229.833 200.5,233.167 200.5,236.5C 193.313,236.175 186.313,236.509 179.5,237.5C 178.442,236.4 177.608,235.066 177,233.5C 176.803,235.861 175.636,237.528 173.5,238.5C 175.159,239.817 176.326,241.483 177,243.5C 177.608,241.934 178.442,240.6 179.5,239.5C 186.648,240.492 193.981,240.825 201.5,240.5C 201.5,244.833 201.5,249.167 201.5,253.5C 187.167,253.5 172.833,253.5 158.5,253.5C 158.5,242.167 158.5,230.833 158.5,219.5C 158.5,216.167 158.5,212.833 158.5,209.5 Z"/></g>
<g><path style="opacity:1" fill="#856fcc" d="M 205.5,209.5 C 213.167,209.5 220.833,209.5 228.5,209.5C 222.835,224.162 217.168,238.828 211.5,253.5C 209.5,253.5 207.5,253.5 205.5,253.5C 205.667,241.829 205.5,230.162 205,218.5C 203.893,219.712 203.393,219.379 203.5,217.5C 205.033,215.645 206.7,213.812 208.5,212C 207.058,211.623 206.058,210.79 205.5,209.5 Z"/></g>
<g><path style="opacity:1" fill="#906ed3" d="M 228.5,209.5 C 235.5,209.5 242.5,209.5 249.5,209.5C 249.5,213.833 249.5,218.167 249.5,222.5C 241.167,222.5 232.833,222.5 224.5,222.5C 224.232,224.099 224.566,225.432 225.5,226.5C 233.5,226.5 241.5,226.5 249.5,226.5C 249.5,229.833 249.5,233.167 249.5,236.5C 241.5,236.5 233.5,236.5 225.5,236.5C 224.566,237.568 224.232,238.901 224.5,240.5C 232.833,240.5 241.167,240.5 249.5,240.5C 249.5,244.833 249.5,249.167 249.5,253.5C 236.833,253.5 224.167,253.5 211.5,253.5C 217.168,238.828 222.835,224.162 228.5,209.5 Z"/></g>
<g><path style="opacity:1" fill="#3f0696" d="M 62.5,212.5 C 71.1667,221.833 80.1667,230.833 89.5,239.5C 90.038,241.117 90.3713,242.784 90.5,244.5C 76.5902,239.238 64.5902,231.238 54.5,220.5C 56.8333,217.5 59.5,214.833 62.5,212.5 Z"/></g>
<g><path style="opacity:0.345" fill="#6c6c6c" d="M 37.5,213.5 C 42.4721,218.807 47.4721,224.14 52.5,229.5C 47.5594,225.735 42.726,221.735 38,217.5C 37.51,216.207 37.3433,214.873 37.5,213.5 Z"/></g>
<g><path style="opacity:1" fill="#eff4f8" d="M 95.5,219.5 C 96.3037,221.189 97.3037,222.855 98.5,224.5C 97.6667,226.167 96.8333,227.833 96,229.5C 95.3257,227.483 94.1591,225.817 92.5,224.5C 94.756,223.579 95.756,221.912 95.5,219.5 Z"/></g>
<g><path style="opacity:1" fill="#4a3175" d="M 249.5,222.5 C 249.5,222.833 249.5,223.167 249.5,223.5C 241.5,223.5 233.5,223.5 225.5,223.5C 225.5,224.5 225.5,225.5 225.5,226.5C 224.566,225.432 224.232,224.099 224.5,222.5C 232.833,222.5 241.167,222.5 249.5,222.5 Z"/></g>
<g><path style="opacity:1" fill="#190b35" d="M 249.5,223.5 C 249.5,224.5 249.5,225.5 249.5,226.5C 241.5,226.5 233.5,226.5 225.5,226.5C 225.5,225.5 225.5,224.5 225.5,223.5C 233.5,223.5 241.5,223.5 249.5,223.5 Z"/></g>
<g><path style="opacity:1" fill="#f2f5f9" d="M 133.5,226.5 C 134.418,228.82 135.752,230.987 137.5,233C 135.683,234.8 134.516,236.966 134,239.5C 133.484,236.966 132.317,234.8 130.5,233C 131.381,232.292 132.047,231.458 132.5,230.5C 133.234,229.292 133.567,227.959 133.5,226.5 Z"/></g>
<g><path style="opacity:1" fill="#ebeaf4" d="M 179.5,237.5 C 180.833,238.167 180.833,238.833 179.5,239.5C 178.442,240.6 177.608,241.934 177,243.5C 176.326,241.483 175.159,239.817 173.5,238.5C 175.636,237.528 176.803,235.861 177,233.5C 177.608,235.066 178.442,236.4 179.5,237.5 Z"/></g>
<g><path style="opacity:1" fill="#20084a" d="M 201.5,213.5 C 202.674,214.514 203.34,215.847 203.5,217.5C 203.393,219.379 203.893,219.712 205,218.5C 205.5,230.162 205.667,241.829 205.5,253.5C 204.167,253.5 202.833,253.5 201.5,253.5C 201.5,249.167 201.5,244.833 201.5,240.5C 193.981,240.825 186.648,240.492 179.5,239.5C 180.833,238.833 180.833,238.167 179.5,237.5C 186.313,236.509 193.313,236.175 200.5,236.5C 200.5,233.167 200.5,229.833 200.5,226.5C 192.833,226.5 185.167,226.5 177.5,226.5C 177.5,225.167 177.5,223.833 177.5,222.5C 185.5,222.5 193.5,222.5 201.5,222.5C 201.5,219.5 201.5,216.5 201.5,213.5 Z"/></g>
<g><path style="opacity:1" fill="#160734" d="M 225.5,236.5 C 233.5,236.5 241.5,236.5 249.5,236.5C 249.5,237.5 249.5,238.5 249.5,239.5C 241.5,239.5 233.5,239.5 225.5,239.5C 225.5,238.5 225.5,237.5 225.5,236.5 Z"/></g>
<g><path style="opacity:1" fill="#442a6f" d="M 225.5,236.5 C 225.5,237.5 225.5,238.5 225.5,239.5C 233.5,239.5 241.5,239.5 249.5,239.5C 249.5,239.833 249.5,240.167 249.5,240.5C 241.167,240.5 232.833,240.5 224.5,240.5C 224.232,238.901 224.566,237.568 225.5,236.5 Z"/></g>
<g><path style="opacity:0.067" fill="#404040" d="M 52.5,229.5 C 57.569,233.909 62.9023,237.909 68.5,241.5C 69.6252,243 70.9586,244.333 72.5,245.5C 68.4076,244.801 64.741,243.134 61.5,240.5C 58.2268,237.037 55.2268,233.37 52.5,229.5 Z"/></g>
<g><path style="opacity:1" fill="#290464" d="M 158.5,219.5 C 158.5,230.833 158.5,242.167 158.5,253.5C 154.5,253.5 150.5,253.5 146.5,253.5C 148.858,242.733 151.525,232.067 154.5,221.5C 155.496,221.414 156.329,221.748 157,222.5C 157.232,221.263 157.732,220.263 158.5,219.5 Z"/></g>
<g><path style="opacity:0.714" fill="#a1a1a1" d="M 68.5,241.5 C 72.6667,243.323 76.6667,245.323 80.5,247.5C 78.4352,247.483 76.4352,247.15 74.5,246.5C 73.8333,246.167 73.1667,245.833 72.5,245.5C 70.9586,244.333 69.6252,243 68.5,241.5 Z"/></g>
<g><path style="opacity:1" fill="#35097f" d="M 118.5,252.5 C 117.5,252.5 116.5,252.5 115.5,252.5C 115.958,248.462 116.624,244.462 117.5,240.5C 118.181,238.842 119.015,237.175 120,235.5C 121.963,241.016 123.13,246.683 123.5,252.5C 121.833,252.5 120.167,252.5 118.5,252.5 Z"/></g>
<g><path style="opacity:0.639" fill="#adadad" d="M 83.5,249.5 C 90.1393,251.266 96.4727,253.599 102.5,256.5C 97.7925,255.376 93.1258,254.043 88.5,252.5C 88.1667,252.5 87.8333,252.5 87.5,252.5C 85.9236,251.857 84.5903,250.857 83.5,249.5 Z"/></g>
<g><path style="opacity:0.047" fill="#353535" d="M 74.5,246.5 C 76.4352,247.15 78.4352,247.483 80.5,247.5C 80.9731,248.906 81.9731,249.573 83.5,249.5C 84.5903,250.857 85.9236,251.857 87.5,252.5C 85.8561,252.286 84.3561,252.62 83,253.5C 80.4119,250.8 77.5786,248.467 74.5,246.5 Z"/></g>
<g><path style="opacity:0.063" fill="#353535" d="M 88.5,252.5 C 93.1258,254.043 97.7925,255.376 102.5,256.5C 102.833,257.167 103.167,257.833 103.5,258.5C 98.8169,257.926 94.1502,257.26 89.5,256.5C 89.5674,255.041 89.2341,253.708 88.5,252.5 Z"/></g>
<g><path style="opacity:0.608" fill="#999999" d="M 102.5,256.5 C 108.004,257.269 113.338,258.269 118.5,259.5C 113.493,259.249 108.493,258.916 103.5,258.5C 103.167,257.833 102.833,257.167 102.5,256.5 Z"/></g>
<g><path style="opacity:0.302" fill="#585858" d="M 103.5,258.5 C 108.493,258.916 113.493,259.249 118.5,259.5C 162.33,260.499 206.33,260.832 250.5,260.5C 250.082,261.222 249.416,261.722 248.5,262C 206.835,262.5 165.168,262.667 123.5,262.5C 117.768,262.717 112.101,262.217 106.5,261C 105.058,260.623 104.058,259.79 103.5,258.5 Z"/></g>
</svg>
