<svg width="24" height="24" viewBox="0 0 24 24" fill="none" xmlns="http://www.w3.org/2000/svg">
<path d="M21.53 15.9301C21.37 15.6601 20.92 15.2401 19.8 15.4401C19.18 15.5501 18.55 15.6001 17.92 15.5701C15.59 15.4701 13.48 14.4001 12.01 12.7501C10.71 11.3001 9.90995 9.41012 9.89995 7.37012C9.89995 6.23012 10.12 5.13012 10.57 4.09012C11.01 3.08012 10.7 2.55012 10.48 2.33012C10.25 2.10012 9.70995 1.78012 8.64995 2.22012C4.55995 3.94012 2.02995 8.04012 2.32995 12.4301C2.62995 16.5601 5.52995 20.0901 9.36995 21.4201C10.29 21.7401 11.26 21.9301 12.26 21.9701C12.42 21.9801 12.58 21.9901 12.74 21.9901C16.09 21.9901 19.23 20.4101 21.21 17.7201C21.88 16.7901 21.7 16.2001 21.53 15.9301Z" fill="white"/>
</svg>
