<svg width="20" height="20" viewBox="0 0 20 20" fill="none" xmlns="http://www.w3.org/2000/svg">
<path d="M9.99935 1.6665C5.40768 1.6665 1.66602 5.40817 1.66602 9.99984C1.66602 14.5915 5.40768 18.3332 9.99935 18.3332C14.591 18.3332 18.3327 14.5915 18.3327 9.99984C18.3327 5.40817 14.591 1.6665 9.99935 1.6665ZM13.3327 10.6248H10.6243V13.3332C10.6243 13.6748 10.341 13.9582 9.99935 13.9582C9.65768 13.9582 9.37435 13.6748 9.37435 13.3332V10.6248H6.66602C6.32435 10.6248 6.04102 10.3415 6.04102 9.99984C6.04102 9.65817 6.32435 9.37484 6.66602 9.37484H9.37435V6.6665C9.37435 6.32484 9.65768 6.0415 9.99935 6.0415C10.341 6.0415 10.6243 6.32484 10.6243 6.6665V9.37484H13.3327C13.6743 9.37484 13.9577 9.65817 13.9577 9.99984C13.9577 10.3415 13.6743 10.6248 13.3327 10.6248Z" fill="#B67AFE"/>
</svg>
