<svg width="24" height="24" viewBox="0 0 24 24" fill="none" xmlns="http://www.w3.org/2000/svg">
<path d="M18.5002 4.10982L13.5102 2.23982C12.6802 1.92982 11.3202 1.92982 10.4902 2.23982L5.50016 4.10982C4.35016 4.53982 3.41016 5.89982 3.41016 7.11982V14.5498C3.41016 15.7298 4.19016 17.2798 5.14016 17.9898L9.44016 21.1998C10.8502 22.2598 13.1702 22.2598 14.5802 21.1998L18.8802 17.9898C19.8302 17.2798 20.6102 15.7298 20.6102 14.5498V7.11982C20.5902 5.89982 19.6502 4.53982 18.5002 4.10982ZM11.9302 7.02982C13.1102 7.02982 14.0702 7.98982 14.0702 9.16982C14.0702 10.3298 13.1602 11.2598 12.0102 11.2998H11.9902H11.9702C11.9502 11.2998 11.9302 11.2998 11.9102 11.2998C10.7102 11.2598 9.81016 10.3298 9.81016 9.16982C9.80016 7.98982 10.7602 7.02982 11.9302 7.02982ZM14.1902 16.3598C13.5802 16.7598 12.7902 16.9698 12.0002 16.9698C11.2102 16.9698 10.4102 16.7698 9.81016 16.3598C9.24016 15.9798 8.93016 15.4598 8.92016 14.8898C8.92016 14.3298 9.24016 13.7898 9.81016 13.4098C11.0202 12.6098 12.9902 12.6098 14.2002 13.4098C14.7702 13.7898 15.0902 14.3098 15.0902 14.8798C15.0802 15.4398 14.7602 15.9798 14.1902 16.3598Z" fill="currentColor"/>
</svg>
