<svg width="20" height="20" viewBox="0 0 20 20" fill="none" xmlns="http://www.w3.org/2000/svg">
<path d="M10.0003 1.66699C5.41699 1.66699 1.66699 5.48366 1.66699 10.1503V16.7253C1.66699 17.7753 2.29199 18.0587 3.05866 17.3587L3.89199 16.6003C4.20033 16.317 4.70033 16.317 5.00866 16.6003L6.67533 18.1253C6.98366 18.4087 7.48366 18.4087 7.79199 18.1253L9.45866 16.6003C9.76699 16.317 10.267 16.317 10.5753 16.6003L12.242 18.1253C12.5503 18.4087 13.0503 18.4087 13.3587 18.1253L15.0253 16.6003C15.3337 16.317 15.8337 16.317 16.142 16.6003L16.9753 17.3587C17.742 18.0587 18.367 17.7753 18.367 16.7253V10.1503C18.3337 5.48366 14.5837 1.66699 10.0003 1.66699ZM10.0003 5.51699C11.092 5.51699 11.9837 6.40866 11.9837 7.50033C11.9837 8.59199 11.092 9.48366 10.0003 9.48366C8.90866 9.48366 8.01699 8.59199 8.01699 7.50033C8.01699 6.40866 8.90866 5.51699 10.0003 5.51699ZM13.7087 12.167C12.617 12.9837 11.3087 13.392 10.0003 13.392C8.69199 13.392 7.38366 12.9837 6.29199 12.167C6.01699 11.9587 5.95866 11.567 6.16699 11.292C6.37533 11.017 6.76699 10.9587 7.04199 11.167C8.78366 12.4753 11.217 12.4753 12.9587 11.167C13.2337 10.9587 13.6253 11.017 13.8337 11.292C14.042 11.567 13.9837 11.9587 13.7087 12.167Z" fill="#B67AFE"/>
</svg>
