<svg width="20" height="20" viewBox="0 0 20 20" fill="none" xmlns="http://www.w3.org/2000/svg">
<path d="M4.32422 5.36054L4.32406 5.3607C3.63634 6.04863 3.25 6.98153 3.25 7.95426C3.25 8.92699 3.63634 9.85989 4.32406 10.5478L4.3241 10.5479L9.3058 15.5303C9.44646 15.671 9.63724 15.75 9.83617 15.75C10.0351 15.75 10.2259 15.671 10.3665 15.5303L15.3439 10.5522C15.6919 10.2148 15.9697 9.81173 16.161 9.36629C16.3533 8.91873 16.4545 8.43736 16.4587 7.95027C16.4629 7.46319 16.3701 6.98013 16.1857 6.5293C16.0012 6.07847 15.7288 5.66888 15.3844 5.32445C15.0399 4.98001 14.6304 4.70762 14.1795 4.52317C13.7287 4.33872 13.2456 4.24591 12.7586 4.25014C12.2715 4.25437 11.7901 4.35557 11.3425 4.54783L11.6351 5.22887L11.3425 4.54783C10.8971 4.73915 10.4941 5.01685 10.1567 5.36485L9.83617 5.68511L9.51133 5.36054C9.51131 5.36052 9.51128 5.3605 9.51126 5.36047C9.51124 5.36045 9.51121 5.36042 9.51118 5.3604C8.82327 4.67277 7.89043 4.28648 6.91777 4.28648C5.94505 4.28648 5.01214 4.67282 4.32422 5.36054Z" stroke="#B67AFE" stroke-width="1.5" stroke-linejoin="round"/>
</svg>
