<svg width="24" height="24" viewBox="0 0 24 24" fill="none" xmlns="http://www.w3.org/2000/svg">
<path d="M21.2695 9.17981C20.9795 8.71981 20.6695 8.28981 20.3495 7.88981C19.9795 7.41981 19.2795 7.37981 18.8595 7.79981L15.8595 10.7998C16.0795 11.4598 16.1195 12.2198 15.9195 13.0098C15.5695 14.4198 14.4295 15.5598 13.0195 15.9098C12.2295 16.1098 11.4695 16.0698 10.8095 15.8498C10.8095 15.8498 9.37946 17.2798 8.34946 18.3098C7.84946 18.8098 8.00946 19.6898 8.67946 19.9498C9.74946 20.3598 10.8595 20.5698 11.9995 20.5698C13.7795 20.5698 15.5095 20.0498 17.0895 19.0798C18.6995 18.0798 20.1495 16.6098 21.3195 14.7398C22.2695 13.2298 22.2195 10.6898 21.2695 9.17981Z" fill="currentColor"/>
<path d="M14.0206 9.98014L9.98062 14.0201C9.47062 13.5001 9.14062 12.7801 9.14062 12.0001C9.14062 10.4301 10.4206 9.14014 12.0006 9.14014C12.7806 9.14014 13.5006 9.47014 14.0206 9.98014Z" fill="currentColor"/>
<path d="M18.25 5.75018L14.86 9.14018C14.13 8.40018 13.12 7.96018 12 7.96018C9.76 7.96018 7.96 9.77018 7.96 12.0002C7.96 13.1202 8.41 14.1302 9.14 14.8602L5.76 18.2502H5.75C4.64 17.3502 3.62 16.2002 2.75 14.8402C1.75 13.2702 1.75 10.7202 2.75 9.15018C3.91 7.33017 5.33 5.90018 6.91 4.92018C8.49 3.96018 10.22 3.43018 12 3.43018C14.23 3.43018 16.39 4.25018 18.25 5.75018Z" fill="currentColor"/>
<path d="M14.8601 12.0001C14.8601 13.5701 13.5801 14.8601 12.0001 14.8601C11.9401 14.8601 11.8901 14.8601 11.8301 14.8401L14.8401 11.8301C14.8601 11.8901 14.8601 11.9401 14.8601 12.0001Z" fill="currentColor"/>
<path d="M21.7709 2.22988C21.4709 1.92988 20.9809 1.92988 20.6809 2.22988L2.23086 20.6899C1.93086 20.9899 1.93086 21.4799 2.23086 21.7799C2.38086 21.9199 2.57086 21.9999 2.77086 21.9999C2.97086 21.9999 3.16086 21.9199 3.31086 21.7699L21.7709 3.30988C22.0809 3.00988 22.0809 2.52988 21.7709 2.22988Z" fill="currentColor"/>
</svg>
