<svg width="27" height="27" viewBox="0 0 27 27" fill="none" xmlns="http://www.w3.org/2000/svg">
<path d="M4.0479 13.2155L4.04791 17.4609L4.04129 20.0598C4.04129 21.1575 4.93403 22.0503 6.03176 22.0503L12.8827 22.0503C13.782 22.0503 14.2251 20.9591 13.5969 20.3309L9.88705 16.6211L5.76725 12.5013C5.13241 11.8665 4.0479 12.3161 4.0479 13.2155Z" fill="currentColor"/>
<path d="M20.0576 4.04319L17.4521 4.04319L13.2067 4.04319C12.314 4.0498 11.8643 5.13431 12.4991 5.76914L16.6189 9.88895L20.3287 13.5988C20.9636 14.2336 22.0481 13.7839 22.0481 12.8846L22.0481 6.03366C22.0547 4.94254 21.1553 4.04319 20.0576 4.04319Z" fill="currentColor"/>
</svg>
