<svg width="24" height="24" viewBox="0 0 24 24" fill="none" xmlns="http://www.w3.org/2000/svg">
<path d="M21.9697 5.5V9.5C21.9697 11.2615 20.6702 12.7232 18.9683 12.9649C18.6949 13.0038 18.4697 12.7761 18.4697 12.5V12.25C18.4697 8.53 15.4497 5.5 11.7197 5.5H11.4697C11.1936 5.5 10.966 5.27486 11.0051 5.0015C11.2478 3.30678 12.7089 2 14.4697 2H18.4697C20.4097 2 21.9697 3.57 21.9697 5.5Z" fill="currentColor"/>
<path d="M11.7197 7H10.9697H6.96973C4.20973 7 1.96973 9.24 1.96973 12V17C1.96973 19.76 4.20973 22 6.96973 22H11.9697C14.7297 22 16.9697 19.76 16.9697 17V13V12.25C16.9697 9.35 14.6197 7 11.7197 7Z" fill="currentColor"/>
</svg>
