<svg width="24" height="24" viewBox="0 0 24 24" fill="none" xmlns="http://www.w3.org/2000/svg">
<path d="M18.0003 16.7498C17.8403 16.7498 17.6903 16.6998 17.5503 16.5998C17.2203 16.3498 17.1503 15.8798 17.4003 15.5498C18.9703 13.4598 18.9703 10.5398 17.4003 8.44978C17.1503 8.11978 17.2203 7.64978 17.5503 7.39978C17.8803 7.14978 18.3503 7.21978 18.6003 7.54978C20.5603 10.1698 20.5603 13.8298 18.6003 16.4498C18.4503 16.6498 18.2303 16.7498 18.0003 16.7498Z" fill="currentColor"/>
<path d="M19.8304 19.2498C19.6704 19.2498 19.5204 19.1998 19.3804 19.0998C19.0504 18.8498 18.9804 18.3798 19.2304 18.0498C21.9004 14.4898 21.9004 9.50978 19.2304 5.94978C18.9804 5.61978 19.0504 5.14978 19.3804 4.89978C19.7104 4.64978 20.1804 4.71978 20.4304 5.04978C23.5004 9.13978 23.5004 14.8598 20.4304 18.9498C20.2904 19.1498 20.0604 19.2498 19.8304 19.2498Z" fill="currentColor"/>
<path d="M14.02 3.78021C12.9 3.16021 11.47 3.32021 10.01 4.23021L7.09 6.06021C6.89 6.18021 6.66 6.25021 6.43 6.25021H5.5H5C2.58 6.25021 1.25 7.58021 1.25 10.0002V14.0002C1.25 16.4202 2.58 17.7502 5 17.7502H5.5H6.43C6.66 17.7502 6.89 17.8202 7.09 17.9402L10.01 19.7702C10.89 20.3202 11.75 20.5902 12.55 20.5902C13.07 20.5902 13.57 20.4702 14.02 20.2202C15.13 19.6002 15.75 18.3102 15.75 16.5902V7.41021C15.75 5.69021 15.13 4.40021 14.02 3.78021Z" fill="currentColor"/>
</svg>
