<svg width="20" height="20" viewBox="0 0 20 20" fill="none" xmlns="http://www.w3.org/2000/svg">
<g clip-path="url(#clip0_1336_6772)">
<path d="M10 1.66699C5.41667 1.66699 1.66667 5.48366 1.66667 10.1503V16.7253C1.66667 17.7753 2.29167 18.0587 3.05833 17.3587L3.89167 16.6003C4.2 16.317 4.7 16.317 5.00833 16.6003L6.675 18.1253C6.98333 18.4087 7.48334 18.4087 7.79167 18.1253L9.45833 16.6003C9.76667 16.317 10.2667 16.317 10.575 16.6003L12.2417 18.1253C12.55 18.4087 13.05 18.4087 13.3583 18.1253L15.025 16.6003C15.3333 16.317 15.8333 16.317 16.1417 16.6003L16.975 17.3587C17.7417 18.0587 18.3667 17.7753 18.3667 16.7253V10.1503C18.3333 5.48366 14.5833 1.66699 10 1.66699ZM10 5.51699C11.0917 5.51699 11.9833 6.40866 11.9833 7.50033C11.9833 8.59199 11.0917 9.48366 10 9.48366C8.90833 9.48366 8.01667 8.59199 8.01667 7.50033C8.01667 6.40866 8.90833 5.51699 10 5.51699ZM13.7083 12.167C12.6167 12.9837 11.3083 13.392 10 13.392C8.69167 13.392 7.38333 12.9837 6.29167 12.167C6.01667 11.9587 5.95833 11.567 6.16667 11.292C6.375 11.017 6.76667 10.9587 7.04167 11.167C8.78333 12.4753 11.2167 12.4753 12.9583 11.167C13.2333 10.9587 13.625 11.017 13.8333 11.292C14.0417 11.567 13.9833 11.9587 13.7083 12.167Z" fill="#B67AFE"/>
</g>
<defs>
<clipPath id="clip0_1336_6772">
<rect width="20" height="20" fill="white"/>
</clipPath>
</defs>
</svg>
