<svg width="36" height="35" viewBox="0 0 36 35" fill="none" xmlns="http://www.w3.org/2000/svg">
<path d="M30.9003 5.97917V9.1875C30.9003 10.3542 30.1503 11.8125 29.4003 12.5417L22.9503 18.0833C22.0503 18.8125 21.4503 20.2708 21.4503 21.4375V27.7083C21.4503 28.5833 20.8503 29.75 20.1003 30.1875L18.0003 31.5C16.0503 32.6667 13.3503 31.3542 13.3503 29.0208V21.2917C13.3503 20.2708 12.7503 18.9583 12.1503 18.2292L11.4453 17.5146C10.9803 17.0333 10.8903 16.3042 11.2653 15.7354L18.9453 3.74792C19.2153 3.325 19.6953 3.0625 20.2203 3.0625H27.9003C29.5503 3.0625 30.9003 4.375 30.9003 5.97917Z" fill="#101010"/>
<path d="M15.5246 5.29375L10.1996 13.5917C9.68961 14.3937 8.51961 14.5104 7.84461 13.825L6.44961 12.3958C5.69961 11.6667 5.09961 10.3542 5.09961 9.47917V6.125C5.09961 4.375 6.44961 3.0625 8.09961 3.0625H14.2496C15.4196 3.0625 16.1396 4.31667 15.5246 5.29375Z" fill="#101010"/>
</svg>
