<svg width="12" height="16" viewBox="0 0 12 16" fill="none" xmlns="http://www.w3.org/2000/svg">
<path d="M5.68704 13.5238L6.21514 14.065L6.75198 13.5325C8.96051 11.3418 10.1507 9.32882 10.5721 7.55632C10.9983 5.76414 10.6294 4.24009 9.77257 3.12913C8.1151 0.979958 4.68697 0.517298 2.68323 2.55986C1.7346 3.52687 1.2983 4.60629 1.25381 5.71815C1.21022 6.80764 1.54445 7.86968 2.02836 8.83159C2.98877 10.7407 4.64694 12.458 5.68704 13.5238Z" stroke="#9C9C9C" stroke-width="1.5" stroke-linecap="round"/>
<path d="M6.00039 8.25028C7.28546 8.25028 8.35039 7.22362 8.35039 5.92885C8.35039 4.63408 7.28546 3.60742 6.00039 3.60742C4.71532 3.60742 3.65039 4.63408 3.65039 5.92885C3.65039 7.22362 4.71532 8.25028 6.00039 8.25028Z" stroke="#9C9C9C" stroke-width="1.5"/>
</svg>
