<svg width="24" height="24" viewBox="0 0 24 24" fill="none" xmlns="http://www.w3.org/2000/svg">
<path d="M16.14 2.94764L7.11 5.93509C1.03999 7.9566 1.03999 11.2527 7.11 13.2643L9.79 14.1506L10.68 16.8194C12.7 22.864 16.02 22.864 18.04 16.8194L21.05 7.8371C22.39 3.80404 20.19 1.60329 16.14 2.94764ZM16.46 8.30513L12.66 12.1091C12.51 12.2585 12.32 12.3282 12.13 12.3282C11.94 12.3282 11.75 12.2585 11.6 12.1091C11.31 11.8204 11.31 11.3424 11.6 11.0536L15.4 7.24957C15.69 6.96078 16.17 6.96078 16.46 7.24957C16.75 7.53835 16.75 8.01634 16.46 8.30513Z" fill="#B67AFE"/>
</svg>
