<svg width="10" height="10" viewBox="0 0 10 10" fill="none" xmlns="http://www.w3.org/2000/svg">
<path d="M5.01616 7.4233C6.35679 7.4233 7.44358 6.33845 7.44358 5.00023C7.44358 3.662 6.35679 2.57715 5.01616 2.57715C3.67554 2.57715 2.58875 3.662 2.58875 5.00023C2.58875 6.33845 3.67554 7.4233 5.01616 7.4233Z" fill="#101010"/>
<path d="M5.01618 8.79392C4.82545 8.79392 4.6694 8.652 4.6694 8.46161V8.43392C4.6694 8.24354 4.82545 8.08777 5.01618 8.08777C5.2069 8.08777 5.36295 8.24354 5.36295 8.43392C5.36295 8.62431 5.2069 8.79392 5.01618 8.79392ZM7.49215 7.81777C7.40198 7.81777 7.31529 7.78315 7.24594 7.71738L7.20085 7.67238C7.06561 7.53738 7.06561 7.31931 7.20085 7.18431C7.3361 7.04931 7.55456 7.04931 7.68981 7.18431L7.73489 7.22931C7.87013 7.36431 7.87013 7.58238 7.73489 7.71738C7.669 7.78315 7.58231 7.81777 7.49215 7.81777ZM2.54021 7.81777C2.45005 7.81777 2.36335 7.78315 2.294 7.71738C2.15876 7.58238 2.15876 7.36431 2.294 7.22931L2.33908 7.18431C2.47432 7.04931 2.69279 7.04931 2.82803 7.18431C2.96327 7.31931 2.96327 7.53738 2.82803 7.67238L2.78295 7.71738C2.71706 7.78315 2.6269 7.81777 2.54021 7.81777ZM8.48392 5.34623H8.45618C8.26545 5.34623 8.1094 5.19046 8.1094 5.00008C8.1094 4.80969 8.26545 4.65392 8.45618 4.65392C8.6469 4.65392 8.81682 4.80969 8.81682 5.00008C8.81682 5.19046 8.67465 5.34623 8.48392 5.34623ZM1.57618 5.34623H1.54843C1.35771 5.34623 1.20166 5.19046 1.20166 5.00008C1.20166 4.80969 1.35771 4.65392 1.54843 4.65392C1.73916 4.65392 1.90908 4.80969 1.90908 5.00008C1.90908 5.19046 1.7669 5.34623 1.57618 5.34623ZM7.44706 2.91969C7.3569 2.91969 7.27021 2.88508 7.20085 2.81931C7.06561 2.68431 7.06561 2.46623 7.20085 2.33123L7.24594 2.28623C7.38118 2.15123 7.59965 2.15123 7.73489 2.28623C7.87013 2.42123 7.87013 2.63931 7.73489 2.77431L7.68981 2.81931C7.62392 2.88508 7.53723 2.91969 7.44706 2.91969ZM2.58529 2.91969C2.49513 2.91969 2.40843 2.88508 2.33908 2.81931L2.294 2.77084C2.15876 2.63584 2.15876 2.41777 2.294 2.28277C2.42924 2.14777 2.64771 2.14777 2.78295 2.28277L2.82803 2.32777C2.96327 2.46277 2.96327 2.68084 2.82803 2.81584C2.76214 2.88508 2.67198 2.91969 2.58529 2.91969ZM5.01618 1.89854C4.82545 1.89854 4.6694 1.75661 4.6694 1.56623V1.53854C4.6694 1.34815 4.82545 1.19238 5.01618 1.19238C5.2069 1.19238 5.36295 1.34815 5.36295 1.53854C5.36295 1.72892 5.2069 1.89854 5.01618 1.89854Z" fill="#101010"/>
</svg>
