<svg width="24" height="24" viewBox="0 0 24 24" fill="none" xmlns="http://www.w3.org/2000/svg">
<path d="M12.6917 19.4555C12.9664 19.5194 12.9916 19.8793 12.724 19.9685L11.144 20.4885C7.17401 21.7685 5.08401 20.6985 3.79401 16.7285L2.51401 12.7785C1.23401 8.80846 2.29401 6.70846 6.26401 5.42846L6.78801 5.25493C7.19087 5.12151 7.58294 5.52557 7.46854 5.93424C7.41184 6.13681 7.3573 6.34822 7.30401 6.56846L6.32401 10.7585C5.22401 15.4685 6.83401 18.0685 11.544 19.1885L12.6917 19.4555Z" fill="currentColor"/>
<path d="M17.1841 2.70854L15.5141 2.31854C12.1741 1.52854 10.1841 2.17854 9.0141 4.59854C8.7141 5.20854 8.4741 5.94854 8.2741 6.79854L7.2941 10.9885C6.3141 15.1685 7.6041 17.2285 11.7741 18.2185L13.4541 18.6185C14.0341 18.7585 14.5741 18.8485 15.0741 18.8885C18.1941 19.1885 19.8541 17.7285 20.6941 14.1185L21.6741 9.93854C22.6541 5.75854 21.3741 3.68854 17.1841 2.70854ZM15.3041 12.8285C15.2141 13.1685 14.9141 13.3885 14.5741 13.3885C14.5141 13.3885 14.4541 13.3785 14.3841 13.3685L11.4741 12.6285C11.0741 12.5285 10.8341 12.1185 10.9341 11.7185C11.0341 11.3185 11.4441 11.0785 11.8441 11.1785L14.7541 11.9185C15.1641 12.0185 15.4041 12.4285 15.3041 12.8285ZM18.2341 9.44854C18.1441 9.78854 17.8441 10.0085 17.5041 10.0085C17.4441 10.0085 17.3841 9.99854 17.3141 9.98854L12.4641 8.75854C12.0641 8.65854 11.8241 8.24854 11.9241 7.84854C12.0241 7.44854 12.4341 7.20854 12.8341 7.30854L17.6841 8.53854C18.0941 8.62854 18.3341 9.03854 18.2341 9.44854Z" fill="currentColor"/>
</svg>
