<svg width="24" height="24" viewBox="0 0 24 24" fill="none" xmlns="http://www.w3.org/2000/svg">
<path d="M18.47 16.83L18.86 19.99C18.96 20.82 18.07 21.4 17.36 20.97L13.9 18.91C13.66 18.77 13.6 18.47 13.73 18.23C14.23 17.31 14.5 16.27 14.5 15.23C14.5 11.57 11.36 8.59 7.50002 8.59C6.71002 8.59 5.94002 8.71 5.22002 8.95C4.85002 9.07 4.49002 8.73 4.58002 8.35C5.49002 4.71 8.99002 2 13.17 2C18.05 2 22 5.69 22 10.24C22 12.94 20.61 15.33 18.47 16.83Z" fill="currentColor"/>
<circle cx="19" cy="5" r="3" fill="#FBA500"/>
<path d="M13 15.2298C13 16.4198 12.56 17.5198 11.82 18.3898C10.83 19.5898 9.26 20.3598 7.5 20.3598L4.89 21.9098C4.45 22.1798 3.89 21.8098 3.95 21.2998L4.2 19.3298C2.86 18.3998 2 16.9098 2 15.2298C2 13.4698 2.94 11.9198 4.38 10.9998C5.27 10.4198 6.34 10.0898 7.5 10.0898C10.54 10.0898 13 12.3898 13 15.2298Z" fill="currentColor"/>
</svg>
